<svg width="39" height="59" viewBox="0 0 39 59" fill="none" xmlns="http://www.w3.org/2000/svg">
<path fill-rule="evenodd" clip-rule="evenodd" d="M4.13298 3.73242C1.66127 5.57593 0 8.53812 0 12.0117V46.8815C0 52.2783 4.12251 56.7576 9.44476 57.1445L26.4013 58.3768C29.8825 58.6298 33.0568 57.0856 35.0712 54.5474C33.579 55.2794 31.8589 55.645 30.0496 55.5221L11.1406 54.2368C6.19466 53.9006 2.36364 50.0073 2.36364 45.3171V8.9502C2.36364 6.97009 3.02779 5.18119 4.13298 3.73242Z" fill="url(#paint0_linear_216_384)"/>
<path d="M16.166 0.501998L33.3024 6.59086C36.7181 7.80459 39 11.0353 39 14.6581V44.6192C39 49.5896 34.779 53.5155 29.8177 53.1594L12.6814 51.9288C8.19916 51.6069 4.72729 47.8793 4.72729 43.3886V8.56929C4.72729 2.65338 10.588 -1.47996 16.166 0.501998Z" fill="url(#paint1_linear_216_384)"/>
<path d="M23.3606 25.5125C23.5122 24.9762 24.1547 24.9762 24.3063 25.5125L25.1955 28.6603C25.3913 29.3519 25.721 29.9807 26.1587 30.4963C26.5964 31.0118 27.13 31.4003 27.7171 31.6306L30.3861 32.6788C30.8411 32.8574 30.8411 33.6148 30.3861 33.7934L27.7157 34.8416C27.1287 35.0723 26.5953 35.4612 26.1579 35.9771C25.7204 36.493 25.391 37.1218 25.1955 37.8138L24.3063 40.9598C24.2736 41.0772 24.2103 41.1797 24.1254 41.2521C24.0405 41.3245 23.9383 41.3635 23.8334 41.3635C23.7286 41.3635 23.6264 41.3245 23.5415 41.2521C23.4566 41.1797 23.3933 41.0772 23.3606 40.9598L22.4714 37.8123C22.2758 37.1203 21.9462 36.4919 21.5088 35.9763C21.0713 35.4608 20.5381 35.0723 19.9512 34.8416L17.2808 33.7934C17.1811 33.7552 17.0944 33.6805 17.0329 33.5802C16.9714 33.4803 16.9383 33.3596 16.9383 33.2363C16.9383 33.1126 16.9714 32.9923 17.0329 32.892C17.0944 32.7921 17.1811 32.7174 17.2808 32.6788L19.9512 31.6306C20.5381 31.4 21.0713 31.0118 21.5088 30.4959C21.9462 29.9804 22.2758 29.3519 22.4714 28.6603L23.3606 25.5125ZM18.0349 17.2266C18.0546 17.1562 18.0927 17.095 18.1437 17.0516C18.1947 17.0082 18.256 16.9848 18.3189 16.9848C18.3818 16.9848 18.4431 17.0082 18.4941 17.0516C18.5451 17.095 18.5831 17.1562 18.6029 17.2266L19.1364 19.1148C19.3749 19.9566 19.9346 20.6164 20.6488 20.8975L22.2508 21.5264C22.3105 21.5497 22.3624 21.5946 22.3993 21.6546C22.4361 21.7147 22.4559 21.787 22.4559 21.8611C22.4559 21.9352 22.4361 22.0075 22.3993 22.0676C22.3624 22.1277 22.3105 22.1726 22.2508 22.1959L20.6488 22.8247C20.2964 22.9626 19.9761 23.1955 19.7136 23.5051C19.451 23.8145 19.2534 24.192 19.1364 24.6074L18.6029 26.4957C18.5831 26.5662 18.5451 26.6271 18.4941 26.6706C18.4431 26.714 18.3818 26.7374 18.3189 26.7374C18.256 26.7374 18.1947 26.714 18.1437 26.6706C18.0927 26.6271 18.0546 26.5662 18.0349 26.4957L17.5014 24.6074C17.3844 24.192 17.1868 23.8145 16.9242 23.5051C16.6617 23.1955 16.3414 22.9626 15.989 22.8247L14.387 22.1959C14.3273 22.1726 14.2754 22.1277 14.2385 22.0676C14.2017 22.0075 14.1819 21.9352 14.1819 21.8611C14.1819 21.787 14.2017 21.7147 14.2385 21.6546C14.2754 21.5946 14.3273 21.5497 14.387 21.5264L15.989 20.8975C16.3414 20.7596 16.6617 20.5267 16.9242 20.2172C17.1868 19.9077 17.3844 19.5302 17.5014 19.1148L18.0349 17.2266ZM27.7805 15.522C27.7941 15.4757 27.8196 15.4356 27.8535 15.4072C27.8873 15.3788 27.9278 15.3635 27.9694 15.3635C28.0109 15.3635 28.0514 15.3788 28.0853 15.4072C28.1191 15.4356 28.1446 15.4757 28.1582 15.522L28.5139 16.7797C28.6725 17.342 29.0461 17.7823 29.5231 17.9692L30.5902 18.3885C30.6294 18.4045 30.6635 18.4346 30.6876 18.4745C30.7117 18.5144 30.7246 18.5621 30.7246 18.6111C30.7246 18.6601 30.7117 18.7078 30.6876 18.7477C30.6635 18.7876 30.6294 18.8177 30.5902 18.8337L29.5231 19.253C29.2882 19.3456 29.0748 19.5013 28.8997 19.7077C28.7246 19.9141 28.5925 20.1657 28.5139 20.4425L28.1582 21.7002C28.1446 21.7465 28.1191 21.7866 28.0853 21.815C28.0514 21.8434 28.0109 21.8587 27.9694 21.8587C27.9278 21.8587 27.8873 21.8434 27.8535 21.815C27.8196 21.7866 27.7941 21.7465 27.7805 21.7002L27.4248 20.4425C27.3462 20.1657 27.2142 19.9141 27.039 19.7077C26.8639 19.5013 26.6505 19.3456 26.4156 19.253L25.35 18.8337C25.3107 18.8177 25.2767 18.7876 25.2526 18.7477C25.2285 18.7078 25.2155 18.6601 25.2155 18.6111C25.2155 18.5621 25.2285 18.5144 25.2526 18.4745C25.2767 18.4346 25.3107 18.4045 25.35 18.3885L26.417 17.9692C26.894 17.7823 27.2677 17.342 27.4262 16.7797L27.7805 15.522Z" fill="white"/>
<defs>
<linearGradient id="paint0_linear_216_384" x1="19.054" y1="-2.1041" x2="19.054" y2="58.2584" gradientUnits="userSpaceOnUse">
<stop stop-color="#78AEFF"/>
<stop offset="1" stop-color="#3379E3"/>
</linearGradient>
<linearGradient id="paint1_linear_216_384" x1="21.8637" y1="-5.98873" x2="21.8637" y2="55.6585" gradientUnits="userSpaceOnUse">
<stop stop-color="#78AEFF"/>
<stop offset="1" stop-color="#3379E3"/>
</linearGradient>
</defs>
</svg>
