            <svg
              width="159"
              height="62"
              viewBox="0 0 159 62"
              fill="none"
              xmlns="http://www.w3.org/2000/svg"
            >
              <path
                d="M4.13298 5.53054C1.66127 7.37405 0 10.3362 0 13.8098V48.6796C0 54.0764 4.12251 58.5557 9.44476 58.9426L26.4013 60.1749C29.8825 60.4279 33.0568 58.8838 35.0712 56.3456C33.579 57.0776 31.8589 57.4431 30.0496 57.3202L11.1406 56.0349C6.19466 55.6987 2.36364 51.8054 2.36364 47.1152V10.7483C2.36364 8.76821 3.02779 6.97931 4.13298 5.53054Z"
                fill="#3379E3"
              />
              <path
                d="M16.166 2.30009L33.3024 8.38895C36.7181 9.60268 39 12.8334 39 16.4562V46.4173C39 51.3877 34.779 55.3136 29.8177 54.9575L12.6814 53.7269C8.19916 53.405 4.72729 49.6774 4.72729 45.1867V10.3674C4.72729 4.45148 10.588 0.318136 16.166 2.30009Z"
                fill="#3379E3"
              />
              <path
                d="M23.3605 27.3106C23.5122 26.7743 24.1546 26.7743 24.3063 27.3106L25.1955 30.4584C25.3912 31.15 25.721 31.7788 26.1586 32.2944C26.5963 32.8099 27.1299 33.1984 27.717 33.4287L30.3861 34.4769C30.841 34.6555 30.841 35.4129 30.3861 35.5915L27.7156 36.6397C27.1286 36.8704 26.5953 37.2592 26.1578 37.7752C25.7204 38.2911 25.3909 38.9199 25.1955 39.6119L24.3063 42.7579C24.2736 42.8753 24.2103 42.9778 24.1253 43.0502C24.0404 43.1226 23.9382 43.1616 23.8334 43.1616C23.7286 43.1616 23.6264 43.1226 23.5415 43.0502C23.4565 42.9778 23.3932 42.8753 23.3605 42.7579L22.4713 39.6104C22.2757 38.9184 21.9461 38.29 21.5087 37.7744C21.0713 37.2589 20.538 36.8704 19.9511 36.6397L17.2807 35.5915C17.1811 35.5533 17.0944 35.4786 17.0328 35.3783C16.9713 35.2784 16.9382 35.1577 16.9382 35.0344C16.9382 34.9107 16.9713 34.7904 17.0328 34.6901C17.0944 34.5902 17.1811 34.5155 17.2807 34.4769L19.9511 33.4287C20.538 33.198 21.0713 32.8099 21.5087 32.294C21.9461 31.7784 22.2757 31.15 22.4713 30.4584L23.3605 27.3106ZM18.0348 19.0247C18.0546 18.9543 18.0927 18.8931 18.1437 18.8497C18.1947 18.8063 18.2559 18.7829 18.3188 18.7829C18.3817 18.7829 18.443 18.8063 18.494 18.8497C18.545 18.8931 18.583 18.9543 18.6028 19.0247L19.1364 20.9129C19.3749 21.7547 19.9346 22.4145 20.6487 22.6956L22.2507 23.3245C22.3104 23.3478 22.3624 23.3927 22.3992 23.4527C22.436 23.5128 22.4558 23.5851 22.4558 23.6592C22.4558 23.7333 22.436 23.8056 22.3992 23.8657C22.3624 23.9258 22.3104 23.9707 22.2507 23.994L20.6487 24.6228C20.2963 24.7607 19.9761 24.9936 19.7135 25.3031C19.451 25.6126 19.2533 25.9901 19.1364 26.4055L18.6028 28.2937C18.583 28.3643 18.545 28.4252 18.494 28.4686C18.443 28.5121 18.3817 28.5355 18.3188 28.5355C18.2559 28.5355 18.1947 28.5121 18.1437 28.4686C18.0927 28.4252 18.0546 28.3643 18.0348 28.2937L17.5013 26.4055C17.3843 25.9901 17.1867 25.6126 16.9241 25.3031C16.6616 24.9936 16.3413 24.7607 15.9889 24.6228L14.387 23.994C14.3273 23.9707 14.2753 23.9258 14.2385 23.8657C14.2016 23.8056 14.1818 23.7333 14.1818 23.6592C14.1818 23.5851 14.2016 23.5128 14.2385 23.4527C14.2753 23.3927 14.3273 23.3478 14.387 23.3245L15.9889 22.6956C16.3413 22.5577 16.6616 22.3248 16.9241 22.0153C17.1867 21.7058 17.3843 21.3283 17.5013 20.9129L18.0348 19.0247ZM27.7804 17.3201C27.794 17.2738 27.8195 17.2337 27.8534 17.2053C27.8873 17.1769 27.9278 17.1616 27.9693 17.1616C28.0108 17.1616 28.0514 17.1769 28.0852 17.2053C28.1191 17.2337 28.1446 17.2738 28.1582 17.3201L28.5139 18.5778C28.6724 19.1401 29.046 19.5804 29.523 19.7673L30.5901 20.1866C30.6294 20.2026 30.6634 20.2327 30.6875 20.2726C30.7116 20.3125 30.7245 20.3602 30.7245 20.4092C30.7245 20.4582 30.7116 20.5059 30.6875 20.5458C30.6634 20.5857 30.6294 20.6158 30.5901 20.6318L29.523 21.0511C29.2882 21.1437 29.0748 21.2994 28.8996 21.5058C28.7245 21.7122 28.5925 21.9637 28.5139 22.2406L28.1582 23.4983C28.1446 23.5446 28.1191 23.5847 28.0852 23.6131C28.0514 23.6415 28.0108 23.6568 27.9693 23.6568C27.9278 23.6568 27.8873 23.6415 27.8534 23.6131C27.8195 23.5847 27.794 23.5446 27.7804 23.4983L27.4247 22.2406C27.3461 21.9637 27.2141 21.7122 27.039 21.5058C26.8638 21.2994 26.6504 21.1437 26.4156 21.0511L25.3499 20.6318C25.3106 20.6158 25.2766 20.5857 25.2525 20.5458C25.2284 20.5059 25.2155 20.4582 25.2155 20.4092C25.2155 20.3602 25.2284 20.3125 25.2525 20.2726C25.2766 20.2327 25.3106 20.2026 25.3499 20.1866L26.417 19.7673C26.894 19.5804 27.2676 19.1401 27.4261 18.5778L27.7804 17.3201Z"
                fill="white"
              />
              <path
                d="M60.952 47.576C58.808 47.576 56.936 47.176 55.336 46.376C53.768 45.544 52.552 44.36 51.688 42.824C50.824 41.256 50.392 39.368 50.392 37.16H56.152C56.152 38.216 56.312 39.144 56.632 39.944C56.952 40.744 57.448 41.368 58.12 41.816C58.824 42.232 59.72 42.44 60.808 42.44C61.896 42.44 62.76 42.232 63.4 41.816C64.04 41.4 64.504 40.824 64.792 40.088C65.112 39.32 65.272 38.44 65.272 37.448V13.4H71.032V37.448C71.032 40.712 70.12 43.224 68.296 44.984C66.504 46.712 64.056 47.576 60.952 47.576ZM85.6863 47.576C83.7023 47.576 82.0543 47.24 80.7422 46.568C79.4303 45.896 78.4543 45 77.8143 43.88C77.1743 42.76 76.8543 41.544 76.8543 40.232C76.8543 38.696 77.2383 37.368 78.0063 36.248C78.8063 35.128 79.9743 34.264 81.5103 33.656C83.0463 33.016 84.9343 32.696 87.1743 32.696H93.2703C93.2703 31.416 93.0943 30.36 92.7423 29.528C92.3903 28.664 91.8463 28.024 91.1103 27.608C90.3743 27.192 89.4303 26.984 88.2783 26.984C86.9663 26.984 85.8463 27.288 84.9183 27.896C83.9903 28.472 83.4143 29.368 83.1903 30.584H77.5263C77.7183 28.856 78.2943 27.384 79.2543 26.168C80.2143 24.92 81.4783 23.96 83.0463 23.288C84.6463 22.584 86.3903 22.232 88.2783 22.232C90.5503 22.232 92.4863 22.632 94.0863 23.432C95.6863 24.2 96.9023 25.32 97.7343 26.792C98.5983 28.232 99.0303 29.976 99.0303 32.024V47H94.1343L93.5583 43.112C93.2383 43.752 92.8223 44.344 92.3103 44.888C91.8303 45.432 91.2703 45.912 90.6303 46.328C89.9903 46.712 89.2543 47.016 88.4223 47.24C87.6223 47.464 86.7103 47.576 85.6863 47.576ZM86.9823 43.016C87.9103 43.016 88.7263 42.856 89.4303 42.536C90.1663 42.184 90.7903 41.704 91.3023 41.096C91.8463 40.456 92.2623 39.752 92.5503 38.984C92.8383 38.216 93.0303 37.4 93.1263 36.536V36.44H87.7983C86.6783 36.44 85.7503 36.584 85.0143 36.872C84.2783 37.16 83.7503 37.56 83.4303 38.072C83.1103 38.552 82.9503 39.128 82.9503 39.8C82.9503 40.472 83.1103 41.048 83.4303 41.528C83.7503 42.008 84.2143 42.376 84.8223 42.632C85.4303 42.888 86.1503 43.016 86.9823 43.016ZM105.185 47V22.808H110.273L110.705 26.84C111.441 25.432 112.497 24.312 113.873 23.48C115.249 22.648 116.881 22.232 118.769 22.232C120.721 22.232 122.385 22.648 123.761 23.48C125.137 24.28 126.193 25.464 126.929 27.032C127.697 28.6 128.081 30.552 128.081 32.888V47H122.321V33.416C122.321 31.4 121.873 29.848 120.977 28.76C120.081 27.672 118.753 27.128 116.993 27.128C115.841 27.128 114.801 27.4 113.873 27.944C112.977 28.488 112.257 29.288 111.713 30.344C111.201 31.368 110.945 32.616 110.945 34.088V47H105.185ZM142.218 47.576C140.234 47.576 138.586 47.24 137.273 46.568C135.962 45.896 134.986 45 134.346 43.88C133.706 42.76 133.386 41.544 133.386 40.232C133.386 38.696 133.77 37.368 134.538 36.248C135.338 35.128 136.506 34.264 138.042 33.656C139.578 33.016 141.466 32.696 143.706 32.696H149.802C149.802 31.416 149.626 30.36 149.274 29.528C148.922 28.664 148.378 28.024 147.642 27.608C146.906 27.192 145.962 26.984 144.81 26.984C143.498 26.984 142.378 27.288 141.45 27.896C140.522 28.472 139.946 29.368 139.722 30.584H134.058C134.25 28.856 134.826 27.384 135.786 26.168C136.746 24.92 138.01 23.96 139.578 23.288C141.178 22.584 142.922 22.232 144.81 22.232C147.082 22.232 149.018 22.632 150.618 23.432C152.218 24.2 153.434 25.32 154.266 26.792C155.13 28.232 155.562 29.976 155.562 32.024V47H150.666L150.09 43.112C149.77 43.752 149.354 44.344 148.842 44.888C148.362 45.432 147.802 45.912 147.162 46.328C146.522 46.712 145.786 47.016 144.954 47.24C144.154 47.464 143.242 47.576 142.218 47.576ZM143.514 43.016C144.442 43.016 145.258 42.856 145.962 42.536C146.698 42.184 147.322 41.704 147.834 41.096C148.378 40.456 148.794 39.752 149.082 38.984C149.37 38.216 149.562 37.4 149.658 36.536V36.44H144.33C143.21 36.44 142.282 36.584 141.546 36.872C140.81 37.16 140.282 37.56 139.962 38.072C139.642 38.552 139.482 39.128 139.482 39.8C139.482 40.472 139.642 41.048 139.962 41.528C140.282 42.008 140.746 42.376 141.354 42.632C141.962 42.888 142.682 43.016 143.514 43.016Z"
                fill="#262626"
              />
            </svg>