<svg width="181" height="71" viewBox="0 0 181 71" fill="none" xmlns="http://www.w3.org/2000/svg">
<g clip-path="url(#clip0_136_1107)">
<path d="M33.978 27.721C34.4661 26.2566 36.534 26.2566 37.0221 27.721L39.8843 36.3165C40.5143 38.2059 41.5757 39.9227 42.9845 41.3307C44.3932 42.7387 46.1106 43.7992 48.0005 44.4282L56.5915 47.2904C58.0558 47.7785 58.0558 49.8464 56.5915 50.3345L47.996 53.1967C46.1065 53.8267 44.3897 54.8882 42.9817 56.2969C41.5737 57.7057 40.5132 59.4231 39.8843 61.3129L37.0221 69.9039C36.9168 70.2246 36.713 70.5038 36.4397 70.7017C36.1664 70.8997 35.8375 71.0063 35.5 71.0063C35.1625 71.0063 34.8337 70.8997 34.5603 70.7017C34.287 70.5038 34.0832 70.2246 33.978 69.9039L31.1158 61.3085C30.4862 59.4194 29.4254 57.703 28.0175 56.295C26.6095 54.887 24.893 53.8263 23.004 53.1967L14.4086 50.3345C14.0879 50.2293 13.8087 50.0255 13.6107 49.7521C13.4128 49.4788 13.3062 49.1499 13.3062 48.8125C13.3062 48.475 13.4128 48.1461 13.6107 47.8728C13.8087 47.5994 14.0879 47.3956 14.4086 47.2904L23.004 44.4282C24.893 43.7986 26.6095 42.7379 28.0175 41.3299C29.4254 39.9219 30.4862 38.2055 31.1158 36.3165L33.978 27.721ZM16.8359 5.0942C16.8995 4.90203 17.0221 4.7348 17.1862 4.61628C17.3503 4.49775 17.5476 4.43395 17.75 4.43395C17.9524 4.43395 18.1497 4.49775 18.3138 4.61628C18.4779 4.7348 18.6005 4.90203 18.6641 5.0942L20.3815 10.2506C21.1491 12.5492 22.9508 14.3508 25.2494 15.1185L30.4058 16.8358C30.5979 16.8995 30.7652 17.022 30.8837 17.1861C31.0022 17.3502 31.066 17.5475 31.066 17.7499C31.066 17.9524 31.0022 18.1497 30.8837 18.3138C30.7652 18.4779 30.5979 18.6004 30.4058 18.6641L25.2494 20.3814C24.1151 20.7579 23.0843 21.394 22.2392 22.2391C21.394 23.0842 20.7579 24.115 20.3815 25.2493L18.6641 30.4057C18.6005 30.5979 18.4779 30.7651 18.3138 30.8836C18.1497 31.0021 17.9524 31.0659 17.75 31.0659C17.5476 31.0659 17.3503 31.0021 17.1862 30.8836C17.0221 30.7651 16.8995 30.5979 16.8359 30.4057L15.1186 25.2493C14.7421 24.115 14.106 23.0842 13.2609 22.2391C12.4157 21.394 11.385 20.7579 10.2506 20.3814L5.09426 18.6641C4.9021 18.6004 4.73487 18.4779 4.61634 18.3138C4.49782 18.1497 4.43402 17.9524 4.43402 17.7499C4.43402 17.5475 4.49782 17.3502 4.61634 17.1861C4.73487 17.022 4.9021 16.8995 5.09426 16.8358L10.2506 15.1185C11.385 14.742 12.4157 14.1059 13.2609 13.2608C14.106 12.4157 14.7421 11.3849 15.1186 10.2506L16.8359 5.0942ZM48.2046 0.43926C48.2484 0.312908 48.3305 0.203344 48.4394 0.125802C48.5484 0.0482595 48.6788 0.0065918 48.8125 0.0065918C48.9462 0.0065918 49.0766 0.0482595 49.1856 0.125802C49.2946 0.203344 49.3766 0.312908 49.4205 0.43926L50.5653 3.87389C51.0756 5.40926 52.2782 6.61182 53.8136 7.12214L57.2482 8.26701C57.3746 8.31082 57.4841 8.3929 57.5617 8.50186C57.6392 8.61081 57.6809 8.74122 57.6809 8.87495C57.6809 9.00868 57.6392 9.13909 57.5617 9.24804C57.4841 9.35699 57.3746 9.43908 57.2482 9.48289L53.8136 10.6278C53.0576 10.8807 52.3707 11.3058 51.807 11.8694C51.2433 12.4331 50.8183 13.12 50.5653 13.876L49.4205 17.3106C49.3766 17.437 49.2946 17.5466 49.1856 17.6241C49.0766 17.7016 48.9462 17.7433 48.8125 17.7433C48.6788 17.7433 48.5484 17.7016 48.4394 17.6241C48.3305 17.5466 48.2484 17.437 48.2046 17.3106L47.0597 13.876C46.8068 13.12 46.3817 12.4331 45.818 11.8694C45.2543 11.3058 44.5674 10.8807 43.8115 10.6278L40.3813 9.48289C40.2549 9.43908 40.1453 9.35699 40.0678 9.24804C39.9903 9.13909 39.9486 9.00868 39.9486 8.87495C39.9486 8.74122 39.9903 8.61081 40.0678 8.50186C40.1453 8.3929 40.2549 8.31082 40.3813 8.26701L43.8159 7.12214C45.3513 6.61182 46.5538 5.40926 47.0641 3.87389L48.2046 0.43926Z" fill="url(#paint0_linear_136_1107)"/>
</g>
<path d="M82.952 52.076C80.808 52.076 78.936 51.676 77.336 50.876C75.768 50.044 74.552 48.86 73.688 47.324C72.824 45.756 72.392 43.868 72.392 41.66H78.152C78.152 42.716 78.312 43.644 78.632 44.444C78.952 45.244 79.448 45.868 80.12 46.316C80.824 46.732 81.72 46.94 82.808 46.94C83.896 46.94 84.76 46.732 85.4 46.316C86.04 45.9 86.504 45.324 86.792 44.588C87.112 43.82 87.272 42.94 87.272 41.948V17.9H93.032V41.948C93.032 45.212 92.12 47.724 90.296 49.484C88.504 51.212 86.056 52.076 82.952 52.076ZM107.686 52.076C105.702 52.076 104.054 51.74 102.742 51.068C101.43 50.396 100.454 49.5 99.8143 48.38C99.1743 47.26 98.8543 46.044 98.8543 44.732C98.8543 43.196 99.2383 41.868 100.006 40.748C100.806 39.628 101.974 38.764 103.51 38.156C105.046 37.516 106.934 37.196 109.174 37.196H115.27C115.27 35.916 115.094 34.86 114.742 34.028C114.39 33.164 113.846 32.524 113.11 32.108C112.374 31.692 111.43 31.484 110.278 31.484C108.966 31.484 107.846 31.788 106.918 32.396C105.99 32.972 105.414 33.868 105.19 35.084H99.5263C99.7183 33.356 100.294 31.884 101.254 30.668C102.214 29.42 103.478 28.46 105.046 27.788C106.646 27.084 108.39 26.732 110.278 26.732C112.55 26.732 114.486 27.132 116.086 27.932C117.686 28.7 118.902 29.82 119.734 31.292C120.598 32.732 121.03 34.476 121.03 36.524V51.5H116.134L115.558 47.612C115.238 48.252 114.822 48.844 114.31 49.388C113.83 49.932 113.27 50.412 112.63 50.828C111.99 51.212 111.254 51.516 110.422 51.74C109.622 51.964 108.71 52.076 107.686 52.076ZM108.982 47.516C109.91 47.516 110.726 47.356 111.43 47.036C112.166 46.684 112.79 46.204 113.302 45.596C113.846 44.956 114.262 44.252 114.55 43.484C114.838 42.716 115.03 41.9 115.126 41.036V40.94H109.798C108.678 40.94 107.75 41.084 107.014 41.372C106.278 41.66 105.75 42.06 105.43 42.572C105.11 43.052 104.95 43.628 104.95 44.3C104.95 44.972 105.11 45.548 105.43 46.028C105.75 46.508 106.214 46.876 106.822 47.132C107.43 47.388 108.15 47.516 108.982 47.516ZM127.185 51.5V27.308H132.273L132.705 31.34C133.441 29.932 134.497 28.812 135.873 27.98C137.249 27.148 138.881 26.732 140.769 26.732C142.721 26.732 144.385 27.148 145.761 27.98C147.137 28.78 148.193 29.964 148.929 31.532C149.697 33.1 150.081 35.052 150.081 37.388V51.5H144.321V37.916C144.321 35.9 143.873 34.348 142.977 33.26C142.081 32.172 140.753 31.628 138.993 31.628C137.841 31.628 136.801 31.9 135.873 32.444C134.977 32.988 134.257 33.788 133.713 34.844C133.201 35.868 132.945 37.116 132.945 38.588V51.5H127.185ZM164.218 52.076C162.234 52.076 160.586 51.74 159.273 51.068C157.962 50.396 156.986 49.5 156.346 48.38C155.706 47.26 155.386 46.044 155.386 44.732C155.386 43.196 155.77 41.868 156.538 40.748C157.338 39.628 158.506 38.764 160.042 38.156C161.578 37.516 163.466 37.196 165.706 37.196H171.802C171.802 35.916 171.626 34.86 171.274 34.028C170.922 33.164 170.378 32.524 169.642 32.108C168.906 31.692 167.962 31.484 166.81 31.484C165.498 31.484 164.378 31.788 163.45 32.396C162.522 32.972 161.946 33.868 161.722 35.084H156.058C156.25 33.356 156.826 31.884 157.786 30.668C158.746 29.42 160.01 28.46 161.578 27.788C163.178 27.084 164.922 26.732 166.81 26.732C169.082 26.732 171.018 27.132 172.618 27.932C174.218 28.7 175.434 29.82 176.266 31.292C177.13 32.732 177.562 34.476 177.562 36.524V51.5H172.666L172.09 47.612C171.77 48.252 171.354 48.844 170.842 49.388C170.362 49.932 169.802 50.412 169.162 50.828C168.522 51.212 167.786 51.516 166.954 51.74C166.154 51.964 165.242 52.076 164.218 52.076ZM165.514 47.516C166.442 47.516 167.258 47.356 167.962 47.036C168.698 46.684 169.322 46.204 169.834 45.596C170.378 44.956 170.794 44.252 171.082 43.484C171.37 42.716 171.562 41.9 171.658 41.036V40.94H166.33C165.21 40.94 164.282 41.084 163.546 41.372C162.81 41.66 162.282 42.06 161.962 42.572C161.642 43.052 161.482 43.628 161.482 44.3C161.482 44.972 161.642 45.548 161.962 46.028C162.282 46.508 162.746 46.876 163.354 47.132C163.962 47.388 164.682 47.516 165.514 47.516Z" fill="#262626"/>
<defs>
<linearGradient id="paint0_linear_136_1107" x1="-0.500001" y1="-2.5" x2="62.5" y2="76" gradientUnits="userSpaceOnUse">
<stop stop-color="#84B5FF"/>
<stop offset="1" stop-color="#3379E3"/>
</linearGradient>
<clipPath id="clip0_136_1107">
<rect width="71" height="71" fill="white"/>
</clipPath>
</defs>
</svg>
