<svg width="102" height="35" viewBox="0 0 102 35" fill="none" xmlns="http://www.w3.org/2000/svg">
<g style="mix-blend-mode:darken" opacity="0.7">
<path d="M0 8.45125C0 4.63289 3.73763 1.96506 7.29495 3.2443L16.4021 6.51928C18.5806 7.30268 20.0357 9.38792 20.0357 11.7262V27.8412C20.0357 31.0493 17.3437 33.5833 14.1798 33.3534L5.07266 32.6915C2.21415 32.4837 0 30.0779 0 27.1794V8.45125Z" fill="url(#paint0_linear_68_1114)"/>
</g>
<path d="M8.81123 2.27001L17.9184 5.54499C19.7337 6.19782 20.9464 7.93551 20.9464 9.88411V25.9991C20.9464 28.6726 18.7031 30.7842 16.0665 30.5926L6.95934 29.9307C4.57724 29.7576 2.73212 27.7526 2.73212 25.3372V6.60912C2.73212 3.42716 5.8468 1.20398 8.81123 2.27001Z" fill="url(#paint1_linear_68_1114)" stroke="#E1E4FF" stroke-width="2"/>
<path d="M12.3379 16.707C12.4214 16.441 12.775 16.441 12.8585 16.707L13.348 18.2681C13.4557 18.6111 13.6372 18.923 13.8781 19.1787C14.1191 19.4344 14.4127 19.6271 14.7359 19.7413L16.205 20.2611C16.4555 20.3497 16.4555 20.7253 16.205 20.8139L14.7351 21.3338C14.412 21.4482 14.1184 21.641 13.8777 21.8969C13.6369 22.1528 13.4555 22.4646 13.348 22.8078L12.8585 24.3681C12.8405 24.4263 12.8057 24.4771 12.7589 24.5131C12.7122 24.549 12.656 24.5683 12.5982 24.5683C12.5405 24.5683 12.4843 24.549 12.4375 24.5131C12.3908 24.4771 12.3559 24.4263 12.3379 24.3681L11.8485 22.8071C11.7408 22.4639 11.5594 22.1522 11.3187 21.8965C11.0779 21.6408 10.7844 21.4482 10.4613 21.3338L8.99144 20.8139C8.93659 20.795 8.88885 20.7579 8.85499 20.7082C8.82113 20.6586 8.80292 20.5988 8.80292 20.5376C8.80292 20.4763 8.82113 20.4166 8.85499 20.3668C8.88885 20.3173 8.93659 20.2803 8.99144 20.2611L10.4613 19.7413C10.7844 19.6269 11.0779 19.4344 11.3187 19.1785C11.5594 18.9228 11.7408 18.6111 11.8485 18.2681L12.3379 16.707ZM9.40652 12.5976C9.4174 12.5627 9.43836 12.5323 9.46643 12.5108C9.4945 12.4893 9.52823 12.4777 9.56284 12.4777C9.59746 12.4777 9.6312 12.4893 9.65926 12.5108C9.68733 12.5323 9.70828 12.5627 9.71917 12.5976L10.0128 13.5341C10.1441 13.9515 10.4522 14.2787 10.8453 14.4182L11.7271 14.7301C11.7599 14.7416 11.7885 14.7639 11.8088 14.7937C11.8291 14.8235 11.84 14.8593 11.84 14.8961C11.84 14.9328 11.8291 14.9687 11.8088 14.9985C11.7885 15.0283 11.7599 15.0505 11.7271 15.0621L10.8453 15.374C10.6513 15.4424 10.475 15.5579 10.3305 15.7114C10.186 15.8649 10.0772 16.0521 10.0128 16.2581L9.71917 17.1946C9.70828 17.2296 9.68733 17.2598 9.65926 17.2813C9.6312 17.3029 9.59746 17.3145 9.56284 17.3145C9.52823 17.3145 9.4945 17.3029 9.46643 17.2813C9.43836 17.2598 9.4174 17.2296 9.40652 17.1946L9.11285 16.2581C9.04847 16.0521 8.93969 15.8649 8.79516 15.7114C8.65065 15.5579 8.47437 15.4424 8.28039 15.374L7.39862 15.0621C7.36576 15.0505 7.33716 15.0283 7.31689 14.9985C7.29662 14.9687 7.28571 14.9328 7.28571 14.8961C7.28571 14.8593 7.29662 14.8235 7.31689 14.7937C7.33716 14.7639 7.36576 14.7416 7.39862 14.7301L8.28039 14.4182C8.47437 14.3498 8.65065 14.2343 8.79516 14.0808C8.93969 13.9273 9.04847 13.7401 9.11285 13.5341L9.40652 12.5976ZM14.7708 11.7522C14.7783 11.7292 14.7923 11.7093 14.811 11.6952C14.8296 11.6812 14.8519 11.6736 14.8748 11.6736C14.8976 11.6736 14.92 11.6812 14.9386 11.6952C14.9572 11.7093 14.9712 11.7292 14.9787 11.7522L15.1745 12.3759C15.2618 12.6548 15.4674 12.8732 15.73 12.9659L16.3174 13.1738C16.339 13.1818 16.3577 13.1967 16.371 13.2165C16.3842 13.2363 16.3913 13.2599 16.3913 13.2842C16.3913 13.3085 16.3842 13.3322 16.371 13.352C16.3577 13.3718 16.339 13.3867 16.3174 13.3946L15.73 13.6026C15.6007 13.6485 15.4832 13.7257 15.3869 13.8281C15.2905 13.9305 15.2178 14.0552 15.1745 14.1925L14.9787 14.8163C14.9712 14.8392 14.9572 14.8591 14.9386 14.8732C14.92 14.8873 14.8976 14.8949 14.8748 14.8949C14.8519 14.8949 14.8296 14.8873 14.811 14.8732C14.7923 14.8591 14.7783 14.8392 14.7708 14.8163L14.575 14.1925C14.5318 14.0552 14.4591 13.9305 14.3627 13.8281C14.2663 13.7257 14.1488 13.6485 14.0195 13.6026L13.433 13.3946C13.4114 13.3867 13.3926 13.3718 13.3794 13.352C13.3661 13.3322 13.359 13.3085 13.359 13.2842C13.359 13.2599 13.3661 13.2363 13.3794 13.2165C13.3926 13.1967 13.4114 13.1818 13.433 13.1738L14.0203 12.9659C14.2829 12.8732 14.4885 12.6548 14.5758 12.3759L14.7708 11.7522Z" fill="white"/>
<path d="M35.2374 27.02C34.1323 27.02 33.1804 26.8137 32.3814 26.4011C31.5823 25.9713 30.9619 25.3523 30.5199 24.5442C30.0778 23.7361 29.8569 22.7734 29.8569 21.6558H32.4324C32.4324 22.2403 32.5258 22.7647 32.7129 23.229C32.8999 23.6932 33.1888 24.0629 33.5799 24.3379C33.9879 24.5958 34.5234 24.7247 35.1864 24.7247C35.8494 24.7247 36.3679 24.5958 36.7419 24.3379C37.1329 24.08 37.4134 23.7361 37.5834 23.3063C37.7533 22.8592 37.8384 22.3521 37.8384 21.7847V8.6579H40.3884V21.7847C40.3884 23.4524 39.9294 24.7419 39.0114 25.6532C38.0934 26.5644 36.8353 27.02 35.2374 27.02ZM48.234 27.02C47.1799 27.02 46.3046 26.8395 45.6075 26.4784C44.9104 26.1174 44.3921 25.636 44.052 25.0342C43.7119 24.4153 43.542 23.7534 43.542 23.0484C43.542 22.1887 43.7629 21.4581 44.205 20.8563C44.6471 20.2374 45.276 19.7645 46.092 19.4379C46.908 19.1113 47.8856 18.9479 49.0245 18.9479H52.365C52.365 18.1914 52.2544 17.5639 52.0335 17.0653C51.8126 16.5667 51.4811 16.197 51.039 15.9563C50.6141 15.6984 50.07 15.5695 49.407 15.5695C48.642 15.5695 47.9876 15.7586 47.4435 16.1368C46.8994 16.4979 46.5596 17.0395 46.4235 17.7616H43.8735C43.9755 16.8503 44.2815 16.0767 44.7915 15.4405C45.3184 14.7872 45.99 14.2886 46.806 13.9447C47.622 13.5837 48.489 13.4032 49.407 13.4032C50.6141 13.4032 51.6255 13.6181 52.4415 14.0479C53.2575 14.4777 53.8695 15.0881 54.2775 15.879C54.7024 16.6526 54.915 17.5811 54.915 18.6642V26.7105H52.6965L52.4925 24.5184C52.3054 24.8623 52.0845 25.189 51.8295 25.4984C51.5745 25.8079 51.2685 26.0745 50.9115 26.2979C50.5714 26.5213 50.172 26.6934 49.713 26.8137C49.2709 26.9513 48.7781 27.02 48.234 27.02ZM48.7185 24.9311C49.2626 24.9311 49.7554 24.8192 50.1975 24.5958C50.6396 24.3723 51.0135 24.0713 51.3195 23.6932C51.6424 23.2977 51.8805 22.8592 52.0335 22.3779C52.2034 21.8792 52.2971 21.3721 52.314 20.8563V20.779H49.2795C48.5486 20.779 47.9535 20.8735 47.4945 21.0626C47.0524 21.2345 46.7295 21.4753 46.5255 21.7847C46.3215 22.0942 46.2195 22.4553 46.2195 22.8679C46.2195 23.2977 46.3129 23.6674 46.5 23.9768C46.704 24.2692 46.9931 24.5013 47.367 24.6732C47.7409 24.845 48.1916 24.9311 48.7185 24.9311ZM58.1699 26.7105V13.7126H60.4649L60.6179 15.9305C61.0259 15.1568 61.6038 14.5465 62.3519 14.0995C63.0998 13.6353 63.9584 13.4032 64.9274 13.4032C65.9474 13.4032 66.8228 13.6095 67.5539 14.0221C68.2848 14.4347 68.8544 15.0623 69.2624 15.9047C69.6704 16.73 69.8744 17.7702 69.8744 19.0253V26.7105H67.3244V19.2832C67.3244 18.0797 67.0608 17.1684 66.5339 16.5495C66.0068 15.9305 65.2418 15.6211 64.2389 15.6211C63.5759 15.6211 62.9808 15.7844 62.4539 16.1111C61.9268 16.4205 61.5018 16.8847 61.1789 17.5037C60.8729 18.1226 60.7199 18.8792 60.7199 19.7732V26.7105H58.1699ZM73.1362 26.7105V13.7126H75.4312L75.5842 15.9305C75.9922 15.1568 76.5701 14.5465 77.3182 14.0995C78.0661 13.6353 78.9247 13.4032 79.8937 13.4032C80.9137 13.4032 81.7891 13.6095 82.5202 14.0221C83.2511 14.4347 83.8207 15.0623 84.2287 15.9047C84.6367 16.73 84.8407 17.7702 84.8407 19.0253V26.7105H82.2907V19.2832C82.2907 18.0797 82.0271 17.1684 81.5002 16.5495C80.9731 15.9305 80.2081 15.6211 79.2052 15.6211C78.5422 15.6211 77.9471 15.7844 77.4202 16.1111C76.8931 16.4205 76.4681 16.8847 76.1452 17.5037C75.8392 18.1226 75.6862 18.8792 75.6862 19.7732V26.7105H73.1362ZM92.361 27.02C91.307 27.02 90.4314 26.8395 89.7345 26.4784C89.0375 26.1174 88.5189 25.636 88.179 25.0342C87.8389 24.4153 87.669 23.7534 87.669 23.0484C87.669 22.1887 87.8899 21.4581 88.332 20.8563C88.7739 20.2374 89.403 19.7645 90.219 19.4379C91.035 19.1113 92.0124 18.9479 93.1515 18.9479H96.492C96.492 18.1914 96.3815 17.5639 96.1605 17.0653C95.9394 16.5667 95.6079 16.197 95.166 15.9563C94.7409 15.6984 94.197 15.5695 93.534 15.5695C92.769 15.5695 92.1144 15.7586 91.5705 16.1368C91.0264 16.4979 90.6864 17.0395 90.5505 17.7616H88.0005C88.1025 16.8503 88.4085 16.0767 88.9185 15.4405C89.4455 14.7872 90.117 14.2886 90.933 13.9447C91.749 13.5837 92.616 13.4032 93.534 13.4032C94.7409 13.4032 95.7525 13.6181 96.5685 14.0479C97.3845 14.4777 97.9965 15.0881 98.4045 15.879C98.8295 16.6526 99.042 17.5811 99.042 18.6642V26.7105H96.8235L96.6195 24.5184C96.4325 24.8623 96.2115 25.189 95.9565 25.4984C95.7015 25.8079 95.3955 26.0745 95.0385 26.2979C94.6985 26.5213 94.299 26.6934 93.84 26.8137C93.3979 26.9513 92.9049 27.02 92.361 27.02ZM92.8455 24.9311C93.3894 24.9311 93.8824 24.8192 94.3245 24.5958C94.7664 24.3723 95.1405 24.0713 95.4465 23.6932C95.7695 23.2977 96.0075 22.8592 96.1605 22.3779C96.3305 21.8792 96.4239 21.3721 96.441 20.8563V20.779H93.4065C92.6754 20.779 92.0805 20.8735 91.6215 21.0626C91.1794 21.2345 90.8565 21.4753 90.6525 21.7847C90.4485 22.0942 90.3465 22.4553 90.3465 22.8679C90.3465 23.2977 90.4399 23.6674 90.627 23.9768C90.831 24.2692 91.1199 24.5013 91.494 24.6732C91.8679 24.845 92.3184 24.9311 92.8455 24.9311Z" fill="black"/>
<defs>
<linearGradient id="paint0_linear_68_1114" x1="10.0179" y1="0.62099" x2="10.0179" y2="33.7789" gradientUnits="userSpaceOnUse">
<stop stop-color="#78AEFF"/>
<stop offset="1" stop-color="#3379E3"/>
</linearGradient>
<linearGradient id="paint1_linear_68_1114" x1="11.8393" y1="-1.22113" x2="11.8393" y2="31.9368" gradientUnits="userSpaceOnUse">
<stop stop-color="#78AEFF"/>
<stop offset="1" stop-color="#3379E3"/>
</linearGradient>
</defs>
</svg>
